HIERARCHY
ROOT Hips
{
	OFFSET 0.000000 0.000000 0.000000
	CHANNELS 6 Xposition Yposition Zposition Xrotation Yrotation Zrotation
	JOINT Spine1
	{
		OFFSET 0.000000 4.165422 0.000004
		CHANNELS 6 Xposition Yposition Zposition Xrotation Yrotation Zrotation
		JOINT Neck
		{
			OFFSET 0.000000 3.320820 0.000004
			CHANNELS 6 Xposition Yposition Zposition Xrotation Yrotation Zrotation
			JOINT Head
			{
				OFFSET 0.000000 2.111520 0.272454
				CHANNELS 6 Xposition Yposition Zposition Xrotation Yrotation Zrotation
				End Site
				{
					OFFSET 0.000000 2.724534 0.000000
				}
			}
		}
		JOINT LeftShoulder
		{
			OFFSET 0.548650 2.681386 -0.072018
			CHANNELS 6 Xposition Yposition Zposition Xrotation Yrotation Zrotation
			JOINT LeftArm
			{
				OFFSET 1.957740 0.000000 0.000000
				CHANNELS 6 Xposition Yposition Zposition Xrotation Yrotation Zrotation
				JOINT LeftForeArm
				{
					OFFSET 3.838816 0.000000 0.000000
					CHANNELS 6 Xposition Yposition Zposition Xrotation Yrotation Zrotation
					JOINT LeftHand
					{
						OFFSET 3.567674 0.000000 0.000000
						CHANNELS 6 Xposition Yposition Zposition Xrotation Yrotation Zrotation
						End Site
						{
							OFFSET 2.043400 0.000000 0.000000
						}
					}
				}
			}
		}
		JOINT RightShoulder
		{
			OFFSET -0.541082 2.681386 -0.072018
			CHANNELS 6 Xposition Yposition Zposition Xrotation Yrotation Zrotation
			JOINT RightArm
			{
				OFFSET -1.957740 0.000000 0.000000
				CHANNELS 6 Xposition Yposition Zposition Xrotation Yrotation Zrotation
				JOINT RightForeArm
				{
					OFFSET -3.838814 0.000000 0.000000
					CHANNELS 6 Xposition Yposition Zposition Xrotation Yrotation Zrotation
					JOINT RightHand
					{
						OFFSET -3.567676 0.000000 0.000000
						CHANNELS 6 Xposition Yposition Zposition Xrotation Yrotation Zrotation
						End Site
						{
							OFFSET -2.043400 0.000000 0.000000
						}
					}
				}
			}
		}
	}
	JOINT LeftUpLeg
	{
		OFFSET 1.362270 0.000000 0.000000
		CHANNELS 6 Xposition Yposition Zposition Xrotation Yrotation Zrotation
		JOINT LeftLeg
		{
			OFFSET 0.000000 -5.729236 -0.000004
			CHANNELS 6 Xposition Yposition Zposition Xrotation Yrotation Zrotation
			JOINT LeftFoot
			{
				OFFSET 0.000000 -6.006450 -0.000004
				CHANNELS 6 Xposition Yposition Zposition Xrotation Yrotation Zrotation
				JOINT LeftToeBase
				{
					OFFSET 0.000000 -0.885476 2.043404
					CHANNELS 6 Xposition Yposition Zposition Xrotation Yrotation Zrotation
					End Site
					{
						OFFSET 0.000000 0.000000 0.544908
					}
				}
			}
		}
	}
	JOINT RightUpLeg
	{
		OFFSET -1.362270 0.000000 0.000000
		CHANNELS 6 Xposition Yposition Zposition Xrotation Yrotation Zrotation
		JOINT RightLeg
		{
			OFFSET 0.000000 -5.729236 -0.000004
			CHANNELS 6 Xposition Yposition Zposition Xrotation Yrotation Zrotation
			JOINT RightFoot
			{
				OFFSET 0.000000 -6.006450 -0.000004
				CHANNELS 6 Xposition Yposition Zposition Xrotation Yrotation Zrotation
				JOINT RightToeBase
				{
					OFFSET 0.000000 -0.885476 2.043404
					CHANNELS 6 Xposition Yposition Zposition Xrotation Yrotation Zrotation
					End Site
					{
						OFFSET 0.000000 0.000000 0.544908
					}
				}
			}
		}
	}
}
MOTION
Frames: 8
Frame Time: 0.016667
0.471038 11.182851 -0.646423 11.654261 2.273444 1.015826 -0.000000 4.165421 0.000004 -5.135599 -1.255481 4.276083 0.000000 3.320822 0.000001 5.725222 2.553924 2.198591 0.000001 2.111520 0.272454 9.974060 2.983658 -4.073305 0.548649 2.681388 -0.072018 -8.889863 0.091771 21.681969 1.957738 -0.000005 -0.000001 -10.054058 -8.226882 -9.877625 3.838815 0.000002 -0.000001 -9.688706 -1.930547 2.299311 3.567671 -0.000003 0.000002 -9.487199 3.864001 -7.111125 -0.541082 2.681386 -0.072018 -4.706680 -6.142247 -18.794048 -1.957741 -0.000003 -0.000001 23.378269 19.346579 -6.300733 -3.838817 0.000002 -0.000002 61.167179 48.471725 -100.822731 -3.567677 0.000002 0.000002 5.466225 5.579690 -28.662035 1.362270 -0.000000 0.000000 -36.874637 15.441617 25.419720 -0.000001 -5.729238 -0.000004 33.494022 5.728828 -10.151994 -0.000002 -6.006453 -0.000004 0.270044 15.106437 -8.323937 0.000000 -0.885476 2.043404 0.000004 -0.000002 -0.000000 -1.362270 -0.000000 0.000000 -29.529708 4.914316 -27.691574 0.000004 -5.729236 -0.000002 41.185371 -11.851280 30.380726 0.000003 -6.006454 -0.000003 -15.783760 -31.505200 -10.820399 -0.000000 -0.885476 2.043403 0.000004 -0.000002 -0.000001 
0.480646 11.173947 -0.643305 11.577012 2.215097 1.042227 0.000000 4.165420 0.000004 -5.053606 -1.198246 4.322590 -0.000000 3.320820 0.000002 5.755147 2.547186 2.138281 -0.000000 2.111517 0.272455 10.021281 2.970309 -4.091891 0.548649 2.681383 -0.072018 -8.887635 0.114052 21.657096 1.957744 -0.000001 -0.000000 -10.052057 -8.206517 -9.922338 3.838814 -0.000003 0.000000 -9.721582 -1.916546 2.306472 3.567674 -0.000001 -0.000001 -9.516953 3.889740 -7.150972 -0.541082 2.681388 -0.072018 -4.672051 -6.145855 -18.779064 -1.957739 -0.000004 -0.000000 23.302889 19.356671 -6.159854 -3.838817 0.000001 -0.000002 61.595199 48.448441 -101.336197 -3.567677 0.000004 -0.000001 5.468440 5.563208 -28.517428 1.362270 -0.000000 0.000000 -36.876898 15.419946 25.579294 0.000002 -5.729233 -0.000002 33.809460 5.680276 -10.413032 -0.000000 -6.006451 -0.000005 -0.094221 15.154282 -8.377805 0.000001 -0.885477 2.043403 0.000001 0.000008 0.000003 -1.362270 0.000000 -0.000000 -29.332326 4.831427 -27.999146 0.000000 -5.729233 -0.000002 41.275257 -12.117828 30.787706 0.000002 -6.006454 -0.000004 -15.686923 -31.569807 -10.345182 -0.000000 -0.885476 2.043402 -0.000000 -0.000009 0.000001 
0.490732 11.164497 -0.640465 11.522153 2.136227 1.048012 -0.000000 4.165420 0.000003 -4.996645 -1.124428 4.392904 -0.000000 3.320816 0.000004 5.802283 2.541996 2.066839 0.000000 2.111521 0.272457 10.026007 2.957257 -4.070017 0.548649 2.681381 -0.072017 -8.902410 0.100196 21.660505 1.957740 -0.000003 -0.000000 -10.022398 -8.163983 -9.987752 3.838815 0.000002 0.000000 -9.767526 -1.887411 2.280619 3.567672 0.000003 -0.000001 -9.560752 3.922029 -7.125268 -0.541081 2.681378 -0.072016 -4.668720 -6.120478 -18.746178 -1.957740 -0.000002 -0.000000 23.184857 19.349883 -6.010519 -3.838816 -0.000002 -0.000001 62.027666 48.339260 -101.789968 -3.567677 0.000002 0.000002 5.616488 5.508569 -28.471872 1.362270 -0.000000 -0.000000 -36.943329 15.438587 25.748493 -0.000003 -5.729234 -0.000003 34.162677 5.744744 -10.605624 -0.000002 -6.006450 -0.000004 -0.442561 15.037718 -8.433845 0.000000 -0.885474 2.043405 -0.000004 -0.000003 0.000001 -1.362270 0.000000 -0.000000 -29.177984 4.747881 -28.278288 0.000002 -5.729231 -0.000001 41.360532 -12.356061 31.172280 0.000003 -6.006454 -0.000004 -15.457659 -31.600635 -9.949910 0.000000 -0.885475 2.043404 -0.000002 -0.000007 -0.000004 
0.499510 11.155779 -0.635961 11.471277 2.018507 1.067198 0.000000 4.165419 0.000004 -4.946922 -1.015861 4.441964 -0.000000 3.320823 0.000003 5.835790 2.524224 2.051387 -0.000000 2.111521 0.272456 10.065519 2.937639 -4.119060 0.548649 2.681387 -0.072018 -8.915349 0.114352 21.656756 1.957742 0.000003 -0.000000 -10.123287 -8.153374 -10.043853 3.838816 0.000002 -0.000000 -9.719395 -1.803630 2.262910 3.567670 0.000001 0.000001 -9.510949 3.880134 -7.194131 -0.541080 2.681386 -0.072018 -4.629459 -6.155519 -18.706949 -1.957738 -0.000002 -0.000000 23.037868 19.427642 -5.880446 -3.838818 0.000004 -0.000000 62.381101 48.206102 -102.174910 -3.567676 0.000003 -0.000000 5.764783 5.425884 -28.436504 1.362270 -0.000001 -0.000000 -36.874282 15.274559 25.906407 0.000000 -5.729235 -0.000002 34.459022 5.684427 -10.946669 -0.000002 -6.006451 -0.000004 -0.792415 15.182317 -8.318642 0.000000 -0.885476 2.043400 0.000002 0.000002 -0.000001 -1.362270 -0.000001 0.000000 -29.002486 4.755455 -28.522897 -0.000003 -5.729231 -0.000003 41.378819 -12.522741 31.507352 0.000003 -6.006450 -0.000004 -15.194840 -31.632020 -9.344853 0.000000 -0.885476 2.043406 -0.000001 -0.000001 0.000002 
0.508118 11.146725 -0.632189 11.428580 1.884388 1.065009 -0.000000 4.165419 0.000002 -4.898050 -0.915563 4.526592 0.000000 3.320825 0.000004 5.878974 2.522787 2.025129 0.000000 2.111520 0.272456 10.074825 2.934919 -4.169028 0.548649 2.681386 -0.072017 -8.926400 0.106425 21.636871 1.957740 -0.000001 -0.000000 -10.183636 -8.087955 -10.086698 3.838814 0.000001 -0.000000 -9.710900 -1.774535 2.234114 3.567673 0.000003 -0.000003 -9.500597 3.915719 -7.153074 -0.541082 2.681388 -0.072017 -4.601182 -6.160130 -18.664281 -1.957739 -0.000010 -0.000000 22.938658 19.489740 -5.796668 -3.838816 0.000001 -0.000002 62.728198 48.186650 -102.555181 -3.567674 -0.000000 -0.000001 5.826635 5.503901 -28.505682 1.362270 -0.000001 0.000000 -36.870116 15.213770 26.092419 -0.000002 -5.729234 -0.000003 34.729333 5.525825 -11.201626 -0.000002 -6.006454 -0.000004 -1.104811 15.328070 -8.235960 -0.000001 -0.885476 2.043403 -0.000001 -0.000004 -0.000003 -1.362270 0.000003 -0.000000 -28.857611 4.742280 -28.693239 0.000001 -5.729232 -0.000002 41.351792 -12.684137 31.703658 0.000003 -6.006456 -0.000004 -14.708315 -31.624145 -8.447467 0.000000 -0.885476 2.043404 -0.000005 -0.000002 -0.000001 
0.516448 11.138551 -0.629073 11.414587 1.745944 1.058820 -0.000000 4.165421 0.000004 -4.912297 -0.808346 4.593304 -0.000000 3.320823 0.000001 5.961052 2.510407 2.013969 0.000000 2.111522 0.272455 10.076138 2.920819 -4.195919 0.548652 2.681392 -0.072018 -8.922318 0.133666 21.662023 1.957739 -0.000000 -0.000000 -10.314743 -8.078270 -10.182081 3.838814 0.000001 0.000000 -9.657724 -1.695324 2.240285 3.567678 0.000002 0.000001 -9.442135 3.943122 -7.214486 -0.541082 2.681387 -0.072017 -4.608531 -6.124481 -18.647683 -1.957741 0.000000 -0.000000 22.925267 19.538342 -5.653790 -3.838817 0.000002 -0.000001 62.989391 48.046764 -102.913226 -3.567677 0.000003 0.000002 5.914195 5.412784 -28.548126 1.362270 0.000001 -0.000000 -36.910373 15.145109 26.226075 -0.000001 -5.729236 -0.000003 35.033659 5.630706 -11.355511 -0.000000 -6.006448 -0.000004 -1.351321 15.239718 -8.185376 0.000000 -0.885476 2.043404 -0.000002 -0.000004 -0.000001 -1.362270 -0.000001 0.000000 -28.738687 4.743906 -28.850241 0.000001 -5.729235 -0.000002 41.279881 -12.837391 31.872104 0.000002 -6.006454 -0.000003 -14.071423 -31.463468 -7.693190 -0.000000 -0.885476 2.043404 -0.000004 -0.000007 0.000002 
0.524520 11.130459 -0.626717 11.424818 1.618447 1.069265 0.000000 4.165419 0.000003 -4.945328 -0.735744 4.693518 0.000000 3.320823 0.000001 6.025998 2.525877 1.941547 0.000000 2.111526 0.272457 10.083668 2.930057 -4.205974 0.548649 2.681387 -0.072018 -8.913472 0.159234 21.609592 1.957739 0.000004 -0.000001 -10.319962 -8.063222 -10.215764 3.838815 0.000000 -0.000001 -9.638975 -1.624025 2.193014 3.567676 0.000003 0.000001 -9.422508 3.945379 -7.176263 -0.541083 2.681388 -0.072017 -4.597102 -6.106820 -18.662705 -1.957741 -0.000004 -0.000000 22.778064 19.597030 -5.537241 -3.838816 0.000006 -0.000001 63.361233 48.050019 -103.264797 -3.567677 -0.000001 0.000001 5.992852 5.501348 -28.472709 1.362270 0.000000 -0.000000 -36.966244 15.090649 26.333680 -0.000000 -5.729235 -0.000005 35.294142 5.571198 -11.504975 -0.000001 -6.006452 -0.000005 -1.568465 15.299559 -8.160821 -0.000002 -0.885476 2.043402 -0.000000 -0.000012 -0.000002 -1.362270 0.000001 -0.000000 -28.637660 4.783645 -29.033495 -0.000001 -5.729229 -0.000002 41.173019 -12.969321 32.075217 0.000002 -6.006455 -0.000004 -13.262201 -31.232010 -6.945369 -0.000000 -0.885476 2.043403 0.000004 -0.000005 0.000000 
0.534224 11.122885 -0.625471 11.455478 1.480134 1.104300 0.000000 4.165417 0.000004 -5.001086 -0.653218 4.726585 0.000000 3.320820 0.000003 6.113781 2.525154 1.920271 -0.000000 2.111518 0.272455 10.056526 2.927836 -4.224133 0.548649 2.681382 -0.072017 -8.916005 0.211390 21.634628 1.957739 0.000007 0.000000 -10.436615 -8.062100 -10.281959 3.838816 0.000003 -0.000000 -9.550325 -1.509174 2.133703 3.567675 -0.000002 -0.000000 -9.328347 3.936815 -7.264786 -0.541081 2.681385 -0.072017 -4.566918 -6.081394 -18.618841 -1.957740 -0.000006 -0.000000 22.647548 19.659834 -5.433206 -3.838815 -0.000001 -0.000000 63.686992 48.028497 -103.603321 -3.567678 -0.000003 0.000004 6.047481 5.505499 -28.492378 1.362270 0.000000 0.000000 -37.009903 14.987015 26.403966 -0.000002 -5.729235 -0.000005 35.566882 5.592834 -11.686831 -0.000002 -6.006452 -0.000004 -1.759195 15.341061 -8.056887 -0.000000 -0.885474 2.043403 -0.000001 -0.000006 -0.000003 -1.362270 -0.000000 -0.000000 -28.644355 4.806728 -29.173295 -0.000001 -5.729235 -0.000002 41.207580 -13.239494 32.146354 0.000003 -6.006452 -0.000004 -12.686665 -30.715268 -6.547789 0.000000 -0.885476 2.043403 -0.000004 -0.000005 0.000000 
